{
	"asset":{
		"generator":"Khronos glTF Blender I/O v3.5.30",
		"version":"2.0"
	},
	"scene":0,
	"scenes":[
		{
			"name":"Scene",
			"nodes":[
				0
			]
		}
	],
	"nodes":[
		{
			"mesh":0,
			"name":"Cone"
		}
	],
	"materials":[
		{
			"doubleSided":true,
			"name":"Material.001",
			"pbrMetallicRoughness":{
				"baseColorFactor":[
					0.04465138539671898,
					0.8000000715255737,
					0.027791297063231468,
					1
				],
				"metallicFactor":0,
				"roughnessFactor":0.5
			}
		}
	],
	"meshes":[
		{
			"name":"Cone",
			"primitives":[
				{
					"attributes":{
						"POSITION":0,
						"TEXCOORD_0":1,
						"NORMAL":2
					},
					"indices":3,
					"material":0
				}
			]
		}
	],
	"accessors":[
		{
			"bufferView":0,
			"componentType":5126,
			"count":65,
			"max":[
				1,
				1,
				1
			],
			"min":[
				-1,
				-1,
				-1
			],
			"type":"VEC3"
		},
		{
			"bufferView":1,
			"componentType":5126,
			"count":65,
			"type":"VEC2"
		},
		{
			"bufferView":2,
			"componentType":5126,
			"count":65,
			"type":"VEC3"
		},
		{
			"bufferView":3,
			"componentType":5123,
			"count":186,
			"type":"SCALAR"
		}
	],
	"bufferViews":[
		{
			"buffer":0,
			"byteLength":780,
			"byteOffset":0,
			"target":34962
		},
		{
			"buffer":0,
			"byteLength":520,
			"byteOffset":780,
			"target":34962
		},
		{
			"buffer":0,
			"byteLength":780,
			"byteOffset":1300,
			"target":34962
		},
		{
			"buffer":0,
			"byteLength":372,
			"byteOffset":2080,
			"target":34963
		}
	],
	"buffers":[
		{
			"byteLength":2452,
			"uri":"data:application/octet-stream;base64,"
		}
	]
}
