{
	"asset":{
		"generator":"Khronos glTF Blender I/O v3.5.30",
		"version":"2.0"
	},
	"scene":0,
	"scenes":[
		{
			"name":"Scene",
			"nodes":[
				0
			]
		}
	],
	"nodes":[
		{
			"mesh":0,
			"name":"Cube"
		}
	],
	"materials":[
		{
			"doubleSided":true,
			"name":"Material",
			"pbrMetallicRoughness":{
				"baseColorFactor":[
					0.8000000715255737,
					0.0007974455947987735,
					0,
					1
				],
				"metallicFactor":0,
				"roughnessFactor":0.5
			}
		},
		{
			"doubleSided":true,
			"name":"Material.001",
			"pbrMetallicRoughness":{
				"baseColorFactor":[
					0.04465138539671898,
					0.8000000715255737,
					0.027791297063231468,
					1
				],
				"metallicFactor":0,
				"roughnessFactor":0.5
			}
		}
	],
	"meshes":[
		{
			"name":"Cube.001",
			"primitives":[
				{
					"attributes":{
						"POSITION":0,
						"TEXCOORD_0":1,
						"NORMAL":2
					},
					"indices":3,
					"material":0
				},
				{
					"attributes":{
						"POSITION":4,
						"TEXCOORD_0":5,
						"NORMAL":6
					},
					"indices":7,
					"material":1
				}
			]
		}
	],
	"accessors":[
		{
			"bufferView":0,
			"componentType":5126,
			"count":12,
			"max":[
				1,
				1,
				1
			],
			"min":[
				-1,
				-1,
				-1
			],
			"type":"VEC3"
		},
		{
			"bufferView":1,
			"componentType":5126,
			"count":12,
			"type":"VEC2"
		},
		{
			"bufferView":2,
			"componentType":5126,
			"count":12,
			"type":"VEC3"
		},
		{
			"bufferView":3,
			"componentType":5123,
			"count":18,
			"type":"SCALAR"
		},
		{
			"bufferView":4,
			"componentType":5126,
			"count":12,
			"max":[
				1,
				1,
				1
			],
			"min":[
				-1,
				-1,
				-1
			],
			"type":"VEC3"
		},
		{
			"bufferView":5,
			"componentType":5126,
			"count":12,
			"type":"VEC2"
		},
		{
			"bufferView":6,
			"componentType":5126,
			"count":12,
			"type":"VEC3"
		},
		{
			"bufferView":7,
			"componentType":5123,
			"count":18,
			"type":"SCALAR"
		}
	],
	"bufferViews":[
		{
			"buffer":0,
			"byteLength":144,
			"byteOffset":0,
			"target":34962
		},
		{
			"buffer":0,
			"byteLength":96,
			"byteOffset":144,
			"target":34962
		},
		{
			"buffer":0,
			"byteLength":144,
			"byteOffset":240,
			"target":34962
		},
		{
			"buffer":0,
			"byteLength":36,
			"byteOffset":384,
			"target":34963
		},
		{
			"buffer":0,
			"byteLength":144,
			"byteOffset":420,
			"target":34962
		},
		{
			"buffer":0,
			"byteLength":96,
			"byteOffset":564,
			"target":34962
		},
		{
			"buffer":0,
			"byteLength":144,
			"byteOffset":660,
			"target":34962
		},
		{
			"buffer":0,
			"byteLength":36,
			"byteOffset":804,
			"target":34963
		}
	],
	"buffers":[
		{
			"byteLength":840,
			"uri":"data:application/octet-stream;base64,"
		}
	]
}
