{
	"asset":{
		"generator":"Khronos glTF Blender I/O v3.5.30",
		"version":"2.0"
	},
	"scene":0,
	"scenes":[
		{
			"name":"Scene",
			"nodes":[
				0
			]
		}
	],
	"nodes":[
		{
			"mesh":0,
			"name":"Plane"
		}
	],
	"meshes":[
		{
			"name":"Plane.004",
			"primitives":[
				{
					"attributes":{
						"COLOR_0":0,
						"POSITION":1,
						"TEXCOORD_0":2,
						"NORMAL":3
					},
					"indices":4
				}
			]
		}
	],
	"accessors":[
		{
			"bufferView":0,
			"componentType":5123,
			"count":4,
			"normalized":true,
			"type":"VEC4"
		},
		{
			"bufferView":1,
			"componentType":5126,
			"count":4,
			"max":[
				1,
				0,
				1
			],
			"min":[
				-1,
				0,
				-1
			],
			"type":"VEC3"
		},
		{
			"bufferView":2,
			"componentType":5126,
			"count":4,
			"type":"VEC2"
		},
		{
			"bufferView":3,
			"componentType":5126,
			"count":4,
			"type":"VEC3"
		},
		{
			"bufferView":4,
			"componentType":5123,
			"count":6,
			"type":"SCALAR"
		}
	],
	"bufferViews":[
		{
			"buffer":0,
			"byteLength":32,
			"byteOffset":0,
			"target":34962
		},
		{
			"buffer":0,
			"byteLength":48,
			"byteOffset":32,
			"target":34962
		},
		{
			"buffer":0,
			"byteLength":32,
			"byteOffset":80,
			"target":34962
		},
		{
			"buffer":0,
			"byteLength":48,
			"byteOffset":112,
			"target":34962
		},
		{
			"buffer":0,
			"byteLength":12,
			"byteOffset":160,
			"target":34963
		}
	],
	"buffers":[
		{
			"byteLength":172,
			"uri":"data:application/octet-stream;base64,"
		}
	]
}
