{
	"asset":{
		"generator":"Khronos glTF Blender I/O v3.5.30",
		"version":"2.0"
	},
	"scene":0,
	"scenes":[
		{
			"name":"Scene",
			"nodes":[
				0
			]
		}
	],
	"nodes":[
		{
			"mesh":0,
			"name":"Suzanne"
		}
	],
	"meshes":[
		{
			"name":"Suzanne.001",
			"primitives":[
				{
					"attributes":{
						"COLOR_0":0,
						"POSITION":1,
						"TEXCOORD_0":2,
						"NORMAL":3
					},
					"indices":4
				}
			]
		}
	],
	"accessors":[
		{
			"bufferView":0,
			"componentType":5123,
			"count":1966,
			"normalized":true,
			"type":"VEC4"
		},
		{
			"bufferView":1,
			"componentType":5126,
			"count":1966,
			"max":[
				1.3671875,
				0.984375,
				0.8515625
			],
			"min":[
				-1.3671875,
				-0.984375,
				-0.8515625
			],
			"type":"VEC3"
		},
		{
			"bufferView":2,
			"componentType":5126,
			"count":1966,
			"type":"VEC2"
		},
		{
			"bufferView":3,
			"componentType":5126,
			"count":1966,
			"type":"VEC3"
		},
		{
			"bufferView":4,
			"componentType":5123,
			"count":2904,
			"type":"SCALAR"
		}
	],
	"bufferViews":[
		{
			"buffer":0,
			"byteLength":15728,
			"byteOffset":0,
			"target":34962
		},
		{
			"buffer":0,
			"byteLength":23592,
			"byteOffset":15728,
			"target":34962
		},
		{
			"buffer":0,
			"byteLength":15728,
			"byteOffset":39320,
			"target":34962
		},
		{
			"buffer":0,
			"byteLength":23592,
			"byteOffset":55048,
			"target":34962
		},
		{
			"buffer":0,
			"byteLength":5808,
			"byteOffset":78640,
			"target":34963
		}
	],
	"buffers":[
		{
			"byteLength":84448,
			"uri":"data:application/octet-stream;base64,"
		}
	]
}
