{
	"asset":{
		"generator":"Khronos glTF Blender I/O v3.6.27",
		"version":"2.0"
	},
	"scene":0,
	"scenes":[
		{
			"name":"Scene",
			"nodes":[
				0,
				1,
				2,
				3
			]
		}
	],
	"nodes":[
		{
			"mesh":0,
			"name":"Plane",
			"translation":[
				0.02210315689444542,
				0.0003765510627999902,
				0.0002523841103538871
			]
		},
		{
			"mesh":1,
			"name":"Cylinder",
			"translation":[
				0.07004734873771667,
				0.033725861459970474,
				0.012606624513864517
			]
		},
		{
			"mesh":2,
			"name":"donud",
			"rotation":[
				0,
				0.7866511344909668,
				0,
				0.6173977255821228
			],
			"translation":[
				-0.0025718663819134235,
				0.023694422096014023,
				-0.0012287609279155731
			]
		},
		{
			"mesh":3,
			"name":"icing",
			"rotation":[
				0,
				0.7866511344909668,
				0,
				0.6173977255821228
			],
			"translation":[
				-0.0025718663819134235,
				0.023694422096014023,
				-0.0012287609279155731
			]
		}
	],
	"materials":[
		{
			"doubleSided":true,
			"name":"Material.002",
			"pbrMetallicRoughness":{
				"baseColorFactor":[
					0.24998067319393158,
					0.3215808868408203,
					0.6642096638679504,
					1
				],
				"metallicFactor":0,
				"roughnessFactor":0.5
			}
		},
		{
			"doubleSided":true,
			"name":"Material.003",
			"pbrMetallicRoughness":{
				"baseColorFactor":[
					0.8000000715255737,
					0.23929142951965332,
					0.051629651337862015,
					1
				],
				"metallicFactor":0,
				"roughnessFactor":0.5
			}
		},
		{
			"doubleSided":true,
			"name":"Material.001",
			"pbrMetallicRoughness":{
				"baseColorTexture":{
					"index":0
				},
				"metallicFactor":0,
				"roughnessFactor":0.6230769157409668
			}
		},
		{
			"doubleSided":true,
			"name":"Material",
			"pbrMetallicRoughness":{
				"baseColorFactor":[
					0.29868924617767334,
					0.09042888134717941,
					0.016843104735016823,
					1
				],
				"metallicFactor":0,
				"roughnessFactor":0.35384613275527954
			}
		}
	],
	"meshes":[
		{
			"name":"Plane",
			"primitives":[
				{
					"attributes":{
						"POSITION":0,
						"NORMAL":1,
						"TEXCOORD_0":2
					},
					"indices":3,
					"material":0
				}
			]
		},
		{
			"name":"Cylinder.003",
			"primitives":[
				{
					"attributes":{
						"POSITION":4,
						"NORMAL":5,
						"TEXCOORD_0":6
					},
					"indices":7,
					"material":1
				}
			]
		},
		{
			"name":"Torus",
			"primitives":[
				{
					"attributes":{
						"POSITION":8,
						"NORMAL":9,
						"TEXCOORD_0":10
					},
					"indices":11,
					"material":2
				}
			]
		},
		{
			"name":"Torus.001",
			"primitives":[
				{
					"attributes":{
						"POSITION":12,
						"NORMAL":13,
						"TEXCOORD_0":14
					},
					"indices":15,
					"material":3
				}
			]
		}
	],
	"textures":[
		{
			"sampler":0,
			"source":0
		}
	],
	"images":[
		{
			"bufferView":12,
			"mimeType":"image/png",
			"name":"textura minharosca"
		}
	],
	"accessors":[
		{
			"bufferView":0,
			"componentType":5126,
			"count":4,
			"max":[
				1,
				0,
				1
			],
			"min":[
				-1,
				0,
				-1
			],
			"type":"VEC3"
		},
		{
			"bufferView":1,
			"componentType":5126,
			"count":4,
			"type":"VEC3"
		},
		{
			"bufferView":2,
			"componentType":5126,
			"count":4,
			"type":"VEC2"
		},
		{
			"bufferView":3,
			"componentType":5123,
			"count":6,
			"type":"SCALAR"
		},
		{
			"bufferView":4,
			"componentType":5126,
			"count":48,
			"max":[
				0.0014889742014929652,
				0.0014889745507389307,
				0.00445767305791378
			],
			"min":[
				-0.0014889742014929652,
				-0.0014889745507389307,
				-0.00445767305791378
			],
			"type":"VEC3"
		},
		{
			"bufferView":5,
			"componentType":5126,
			"count":48,
			"type":"VEC3"
		},
		{
			"bufferView":6,
			"componentType":5126,
			"count":48,
			"type":"VEC2"
		},
		{
			"bufferView":7,
			"componentType":5123,
			"count":84,
			"type":"SCALAR"
		},
		{
			"bufferView":8,
			"componentType":5126,
			"count":12544,
			"max":[
				0.05063009634613991,
				0.018210455775260925,
				0.05242593586444855
			],
			"min":[
				-0.04908737540245056,
				-0.021523157134652138,
				-0.04829446226358414
			],
			"type":"VEC3"
		},
		{
			"bufferView":9,
			"componentType":5126,
			"count":12544,
			"type":"VEC3"
		},
		{
			"bufferView":10,
			"componentType":5126,
			"count":12544,
			"type":"VEC2"
		},
		{
			"bufferView":11,
			"componentType":5123,
			"count":18816,
			"type":"SCALAR"
		},
		{
			"bufferView":13,
			"componentType":5126,
			"count":13056,
			"max":[
				0.05180259421467781,
				0.019612105563282967,
				0.05309165269136429
			],
			"min":[
				-0.05051670968532562,
				-0.008310708217322826,
				-0.04954734817147255
			],
			"type":"VEC3"
		},
		{
			"bufferView":14,
			"componentType":5126,
			"count":13056,
			"type":"VEC3"
		},
		{
			"bufferView":15,
			"componentType":5126,
			"count":13056,
			"type":"VEC2"
		},
		{
			"bufferView":16,
			"componentType":5123,
			"count":19584,
			"type":"SCALAR"
		}
	],
	"bufferViews":[
		{
			"buffer":0,
			"byteLength":48,
			"byteOffset":0,
			"target":34962
		},
		{
			"buffer":0,
			"byteLength":48,
			"byteOffset":48,
			"target":34962
		},
		{
			"buffer":0,
			"byteLength":32,
			"byteOffset":96,
			"target":34962
		},
		{
			"buffer":0,
			"byteLength":12,
			"byteOffset":128,
			"target":34963
		},
		{
			"buffer":0,
			"byteLength":576,
			"byteOffset":140,
			"target":34962
		},
		{
			"buffer":0,
			"byteLength":576,
			"byteOffset":716,
			"target":34962
		},
		{
			"buffer":0,
			"byteLength":384,
			"byteOffset":1292,
			"target":34962
		},
		{
			"buffer":0,
			"byteLength":168,
			"byteOffset":1676,
			"target":34963
		},
		{
			"buffer":0,
			"byteLength":150528,
			"byteOffset":1844,
			"target":34962
		},
		{
			"buffer":0,
			"byteLength":150528,
			"byteOffset":152372,
			"target":34962
		},
		{
			"buffer":0,
			"byteLength":100352,
			"byteOffset":302900,
			"target":34962
		},
		{
			"buffer":0,
			"byteLength":37632,
			"byteOffset":403252,
			"target":34963
		},
		{
			"buffer":0,
			"byteLength":94363,
			"byteOffset":440884
		},
		{
			"buffer":0,
			"byteLength":156672,
			"byteOffset":535248,
			"target":34962
		},
		{
			"buffer":0,
			"byteLength":156672,
			"byteOffset":691920,
			"target":34962
		},
		{
			"buffer":0,
			"byteLength":104448,
			"byteOffset":848592,
			"target":34962
		},
		{
			"buffer":0,
			"byteLength":39168,
			"byteOffset":953040,
			"target":34963
		}
	],
	"samplers":[
		{
			"magFilter":9729,
			"minFilter":9987
		}
	],
	"buffers":[
		{
			"byteLength":992208,
			"uri":"data:application/octet-stream;base64,"
		}
	]
}
