{
	"asset":{
		"generator":"Khronos glTF Blender I/O v3.5.30",
		"version":"2.0"
	},
	"scene":0,
	"scenes":[
		{
			"name":"Scene",
			"nodes":[
				0,
				1
			]
		}
	],
	"nodes":[
		{
			"name":"Node_0",
			"scale":[
				0.009999999776482582,
				0.009999999776482582,
				0.009999999776482582
			]
		},
		{
			"mesh":0,
			"name":"Circle"
		}
	],
	"meshes":[
		{
			"name":"Circle",
			"primitives":[
				{
					"attributes":{
						"COLOR_0":0,
						"POSITION":1,
						"TEXCOORD_0":2,
						"NORMAL":3
					},
					"indices":4
				}
			]
		}
	],
	"accessors":[
		{
			"bufferView":0,
			"componentType":5123,
			"count":33,
			"normalized":true,
			"type":"VEC4"
		},
		{
			"bufferView":1,
			"componentType":5126,
			"count":33,
			"max":[
				1,
				0.014494836330413818,
				1
			],
			"min":[
				-1,
				0.014494836330413818,
				-1
			],
			"type":"VEC3"
		},
		{
			"bufferView":2,
			"componentType":5126,
			"count":33,
			"type":"VEC2"
		},
		{
			"bufferView":3,
			"componentType":5126,
			"count":33,
			"type":"VEC3"
		},
		{
			"bufferView":4,
			"componentType":5123,
			"count":96,
			"type":"SCALAR"
		}
	],
	"bufferViews":[
		{
			"buffer":0,
			"byteLength":264,
			"byteOffset":0,
			"target":34962
		},
		{
			"buffer":0,
			"byteLength":396,
			"byteOffset":264,
			"target":34962
		},
		{
			"buffer":0,
			"byteLength":264,
			"byteOffset":660,
			"target":34962
		},
		{
			"buffer":0,
			"byteLength":396,
			"byteOffset":924,
			"target":34962
		},
		{
			"buffer":0,
			"byteLength":192,
			"byteOffset":1320,
			"target":34963
		}
	],
	"buffers":[
		{
			"byteLength":1512,
			"uri":"data:application/octet-stream;base64,"
		}
	]
}
