{
	"asset":{
		"generator":"Khronos glTF Blender I/O v3.5.30",
		"version":"2.0"
	},
	"scene":0,
	"scenes":[
		{
			"name":"Scene",
			"nodes":[
				0,
				1
			]
		}
	],
	"nodes":[
		{
			"mesh":0,
			"name":"Torus"
		},
		{
			"mesh":1,
			"name":"Cube"
		}
	],
	"materials":[
		{
			"doubleSided":true,
			"name":"Material",
			"pbrMetallicRoughness":{
				"baseColorFactor":[
					0.8000000715255737,
					0.0007974455947987735,
					0,
					1
				],
				"metallicFactor":0,
				"roughnessFactor":0.5
			}
		},
		{
			"doubleSided":true,
			"name":"Material.001",
			"pbrMetallicRoughness":{
				"baseColorFactor":[
					0.04465138539671898,
					0.8000000715255737,
					0.027791297063231468,
					1
				],
				"metallicFactor":0,
				"roughnessFactor":0.5
			}
		},
		{
			"doubleSided":true,
			"name":"Material.002",
			"pbrMetallicRoughness":{
				"baseColorFactor":[
					0.0006127689266577363,
					0,
					0.8000000715255737,
					1
				],
				"metallicFactor":0,
				"roughnessFactor":0.5
			}
		}
	],
	"meshes":[
		{
			"name":"Torus",
			"primitives":[
				{
					"attributes":{
						"POSITION":0,
						"TEXCOORD_0":1,
						"NORMAL":2
					},
					"indices":3,
					"material":0
				}
			]
		},
		{
			"name":"Cube.002",
			"primitives":[
				{
					"attributes":{
						"POSITION":4,
						"TEXCOORD_0":5,
						"NORMAL":6
					},
					"indices":7,
					"material":1
				},
				{
					"attributes":{
						"POSITION":8,
						"TEXCOORD_0":9,
						"NORMAL":10
					},
					"indices":11,
					"material":2
				}
			]
		}
	],
	"accessors":[
		{
			"bufferView":0,
			"componentType":5126,
			"count":637,
			"max":[
				-0.12197303771972656,
				1.2501440048217773,
				1.1271271705627441
			],
			"min":[
				-2.208980083465576,
				-0.45586246252059937,
				-1.368858814239502
			],
			"type":"VEC3"
		},
		{
			"bufferView":1,
			"componentType":5126,
			"count":637,
			"type":"VEC2"
		},
		{
			"bufferView":2,
			"componentType":5126,
			"count":637,
			"type":"VEC3"
		},
		{
			"bufferView":3,
			"componentType":5123,
			"count":3456,
			"type":"SCALAR"
		},
		{
			"bufferView":4,
			"componentType":5126,
			"count":12,
			"max":[
				2.3644604682922363,
				1.4815893173217773,
				1.1894131898880005
			],
			"min":[
				-0.475938081741333,
				-1.3490238189697266,
				-1.517074704170227
			],
			"type":"VEC3"
		},
		{
			"bufferView":5,
			"componentType":5126,
			"count":12,
			"type":"VEC2"
		},
		{
			"bufferView":6,
			"componentType":5126,
			"count":12,
			"type":"VEC3"
		},
		{
			"bufferView":7,
			"componentType":5123,
			"count":18,
			"type":"SCALAR"
		},
		{
			"bufferView":8,
			"componentType":5126,
			"count":12,
			"max":[
				2.3644604682922363,
				1.4815893173217773,
				1.1894131898880005
			],
			"min":[
				-0.475938081741333,
				-1.3490238189697266,
				-1.517074704170227
			],
			"type":"VEC3"
		},
		{
			"bufferView":9,
			"componentType":5126,
			"count":12,
			"type":"VEC2"
		},
		{
			"bufferView":10,
			"componentType":5126,
			"count":12,
			"type":"VEC3"
		},
		{
			"bufferView":11,
			"componentType":5123,
			"count":18,
			"type":"SCALAR"
		}
	],
	"bufferViews":[
		{
			"buffer":0,
			"byteLength":7644,
			"byteOffset":0,
			"target":34962
		},
		{
			"buffer":0,
			"byteLength":5096,
			"byteOffset":7644,
			"target":34962
		},
		{
			"buffer":0,
			"byteLength":7644,
			"byteOffset":12740,
			"target":34962
		},
		{
			"buffer":0,
			"byteLength":6912,
			"byteOffset":20384,
			"target":34963
		},
		{
			"buffer":0,
			"byteLength":144,
			"byteOffset":27296,
			"target":34962
		},
		{
			"buffer":0,
			"byteLength":96,
			"byteOffset":27440,
			"target":34962
		},
		{
			"buffer":0,
			"byteLength":144,
			"byteOffset":27536,
			"target":34962
		},
		{
			"buffer":0,
			"byteLength":36,
			"byteOffset":27680,
			"target":34963
		},
		{
			"buffer":0,
			"byteLength":144,
			"byteOffset":27716,
			"target":34962
		},
		{
			"buffer":0,
			"byteLength":96,
			"byteOffset":27860,
			"target":34962
		},
		{
			"buffer":0,
			"byteLength":144,
			"byteOffset":27956,
			"target":34962
		},
		{
			"buffer":0,
			"byteLength":36,
			"byteOffset":28100,
			"target":34963
		}
	],
	"buffers":[
		{
			"byteLength":28136,
			"uri":"data:application/octet-stream;base64,"
		}
	]
}
