{
	"asset":{
		"generator":"Khronos glTF Blender I/O v3.5.30",
		"version":"2.0"
	},
	"scene":0,
	"scenes":[
		{
			"name":"Scene",
			"nodes":[
				0,
				1,
				2,
				3,
				8
			]
		}
	],
	"nodes":[
		{
			"mesh":0,
			"name":"Icosphere",
			"rotation":[
				0.8669134378433228,
				0.017861148342490196,
				0.4486766457557678,
				0.21640551090240479
			],
			"scale":[
				0.8095754384994507,
				3.006049156188965,
				3.006049394607544
			],
			"translation":[
				-1.7605119943618774,
				4.643903732299805,
				-1.0799237489700317
			]
		},
		{
			"mesh":1,
			"name":"Cube",
			"scale":[
				8.676274299621582,
				0.12963107228279114,
				8.676274299621582
			]
		},
		{
			"mesh":2,
			"name":"Suzanne",
			"rotation":[
				-0.3105812966823578,
				0.10077285021543503,
				0.050841476768255234,
				0.9438217282295227
			],
			"translation":[
				4.605127811431885,
				1.03163743019104,
				2.7781307697296143
			]
		},
		{
			"mesh":3,
			"name":"Suzanne.001",
			"rotation":[
				-0.24125739932060242,
				0.7727396488189697,
				0.287773072719574,
				0.511717677116394
			],
			"scale":[
				2.872368574142456,
				2.872368574142456,
				2.872368574142456
			],
			"translation":[
				4.111877918243408,
				1.4154380559921265,
				-3.5290095806121826
			]
		},
		{
			"mesh":4,
			"name":"Cube.005",
			"rotation":[
				0.2594773769378662,
				-0.15636219084262848,
				-0.6866454482078552,
				0.6608633995056152
			],
			"scale":[
				0.8243761658668518,
				0.8243749141693115,
				0.8243758082389832
			],
			"translation":[
				2.6775002479553223,
				-0.9855210781097412,
				-0.3955336809158325
			]
		},
		{
			"children":[
				4
			],
			"mesh":5,
			"name":"Cube.004",
			"rotation":[
				-0.18876568973064423,
				0.012700310908257961,
				-0.039745863527059555,
				0.9811353087425232
			],
			"scale":[
				0.05419478192925453,
				0.9546692371368408,
				0.9546691179275513
			],
			"translation":[
				2.313589572906494,
				-0.9679467082023621,
				-1.1525654792785645
			]
		},
		{
			"children":[
				5
			],
			"mesh":6,
			"name":"Cube.003",
			"rotation":[
				0.21970368921756744,
				0.39899083971977234,
				-0.2696964144706726,
				0.8484105467796326
			],
			"scale":[
				0.7045416831970215,
				0.7045413851737976,
				0.7045416831970215
			],
			"translation":[
				1.765649676322937,
				-0.4334469139575958,
				-1.8863303661346436
			]
		},
		{
			"children":[
				6
			],
			"mesh":7,
			"name":"Cube.001",
			"rotation":[
				-0.07070886343717575,
				-0.14797045290470123,
				0.2562495768070221,
				0.9525971412658691
			],
			"scale":[
				1.8860443830490112,
				1.8860446214675903,
				1.8860446214675903
			],
			"translation":[
				3.4596352577209473,
				1.6827075481414795,
				3.0687451362609863
			]
		},
		{
			"children":[
				7
			],
			"mesh":8,
			"name":"Cube.002",
			"rotation":[
				-0.6778663992881775,
				-0.7119609713554382,
				-0.08202394843101501,
				0.1639537811279297
			],
			"scale":[
				0.7084604501724243,
				0.7084604501724243,
				0.7084605097770691
			],
			"translation":[
				-1.6171890497207642,
				0.6865899562835693,
				6.999073505401611
			]
		}
	],
	"materials":[
		{
			"doubleSided":true,
			"name":"Material.002",
			"pbrMetallicRoughness":{
				"baseColorFactor":[
					0.032827846705913544,
					0.04552643001079559,
					0.8000000715255737,
					1
				],
				"metallicFactor":0,
				"roughnessFactor":0.5
			}
		},
		{
			"doubleSided":true,
			"name":"Material.001",
			"pbrMetallicRoughness":{
				"baseColorFactor":[
					0.1610776036977768,
					0.8000000715255737,
					0,
					1
				],
				"metallicFactor":0,
				"roughnessFactor":0.5
			}
		},
		{
			"doubleSided":true,
			"name":"Material.004",
			"pbrMetallicRoughness":{
				"baseColorFactor":[
					0.8000000715255737,
					0.5660853385925293,
					0,
					1
				],
				"metallicFactor":0,
				"roughnessFactor":0.5
			}
		},
		{
			"doubleSided":true,
			"name":"Material.003",
			"pbrMetallicRoughness":{
				"baseColorFactor":[
					0.8000000715255737,
					0.015741875395178795,
					0.023663967847824097,
					1
				],
				"metallicFactor":0,
				"roughnessFactor":0.5
			}
		}
	],
	"meshes":[
		{
			"name":"Icosphere.005",
			"primitives":[
				{
					"attributes":{
						"POSITION":0,
						"TEXCOORD_0":1,
						"NORMAL":2
					},
					"indices":3,
					"material":0
				}
			]
		},
		{
			"name":"Cube.023",
			"primitives":[
				{
					"attributes":{
						"POSITION":4,
						"TEXCOORD_0":5,
						"NORMAL":6
					},
					"indices":7,
					"material":1
				}
			]
		},
		{
			"name":"Suzanne",
			"primitives":[
				{
					"attributes":{
						"POSITION":8,
						"TEXCOORD_0":9,
						"NORMAL":10
					},
					"indices":11
				}
			]
		},
		{
			"name":"Suzanne.001",
			"primitives":[
				{
					"attributes":{
						"POSITION":12,
						"TEXCOORD_0":13,
						"NORMAL":14
					},
					"indices":11,
					"material":0
				}
			]
		},
		{
			"name":"Cube.029",
			"primitives":[
				{
					"attributes":{
						"POSITION":15,
						"TEXCOORD_0":16,
						"NORMAL":17
					},
					"indices":7,
					"material":2
				}
			]
		},
		{
			"name":"Cube.028",
			"primitives":[
				{
					"attributes":{
						"POSITION":18,
						"TEXCOORD_0":19,
						"NORMAL":20
					},
					"indices":7,
					"material":2
				}
			]
		},
		{
			"name":"Cube.027",
			"primitives":[
				{
					"attributes":{
						"POSITION":21,
						"TEXCOORD_0":22,
						"NORMAL":23
					},
					"indices":7,
					"material":3
				}
			]
		},
		{
			"name":"Cube.026",
			"primitives":[
				{
					"attributes":{
						"POSITION":24,
						"TEXCOORD_0":25,
						"NORMAL":26
					},
					"indices":7,
					"material":0
				}
			]
		},
		{
			"name":"Cube.025",
			"primitives":[
				{
					"attributes":{
						"POSITION":27,
						"TEXCOORD_0":28,
						"NORMAL":29
					},
					"indices":7
				}
			]
		}
	],
	"accessors":[
		{
			"bufferView":0,
			"componentType":5126,
			"count":240,
			"max":[
				0.9510578513145447,
				1,
				0.9999999403953552
			],
			"min":[
				-0.9510578513145447,
				-1,
				-0.9999999403953552
			],
			"type":"VEC3"
		},
		{
			"bufferView":1,
			"componentType":5126,
			"count":240,
			"type":"VEC2"
		},
		{
			"bufferView":2,
			"componentType":5126,
			"count":240,
			"type":"VEC3"
		},
		{
			"bufferView":3,
			"componentType":5123,
			"count":240,
			"type":"SCALAR"
		},
		{
			"bufferView":4,
			"componentType":5126,
			"count":24,
			"max":[
				1,
				1,
				1
			],
			"min":[
				-1,
				-1,
				-1
			],
			"type":"VEC3"
		},
		{
			"bufferView":5,
			"componentType":5126,
			"count":24,
			"type":"VEC2"
		},
		{
			"bufferView":6,
			"componentType":5126,
			"count":24,
			"type":"VEC3"
		},
		{
			"bufferView":7,
			"componentType":5123,
			"count":36,
			"type":"SCALAR"
		},
		{
			"bufferView":8,
			"componentType":5126,
			"count":1966,
			"max":[
				1.3671875,
				0.984375,
				0.8515625
			],
			"min":[
				-1.3671875,
				-0.984375,
				-0.8515625
			],
			"type":"VEC3"
		},
		{
			"bufferView":9,
			"componentType":5126,
			"count":1966,
			"type":"VEC2"
		},
		{
			"bufferView":10,
			"componentType":5126,
			"count":1966,
			"type":"VEC3"
		},
		{
			"bufferView":11,
			"componentType":5123,
			"count":2904,
			"type":"SCALAR"
		},
		{
			"bufferView":12,
			"componentType":5126,
			"count":1966,
			"max":[
				1.3671875,
				0.984375,
				0.8515625
			],
			"min":[
				-1.3671875,
				-0.984375,
				-0.8515625
			],
			"type":"VEC3"
		},
		{
			"bufferView":13,
			"componentType":5126,
			"count":1966,
			"type":"VEC2"
		},
		{
			"bufferView":14,
			"componentType":5126,
			"count":1966,
			"type":"VEC3"
		},
		{
			"bufferView":15,
			"componentType":5126,
			"count":24,
			"max":[
				1,
				1,
				1
			],
			"min":[
				-1,
				-1,
				-1
			],
			"type":"VEC3"
		},
		{
			"bufferView":16,
			"componentType":5126,
			"count":24,
			"type":"VEC2"
		},
		{
			"bufferView":17,
			"componentType":5126,
			"count":24,
			"type":"VEC3"
		},
		{
			"bufferView":18,
			"componentType":5126,
			"count":24,
			"max":[
				1,
				1,
				1
			],
			"min":[
				-1,
				-1,
				-1
			],
			"type":"VEC3"
		},
		{
			"bufferView":19,
			"componentType":5126,
			"count":24,
			"type":"VEC2"
		},
		{
			"bufferView":20,
			"componentType":5126,
			"count":24,
			"type":"VEC3"
		},
		{
			"bufferView":21,
			"componentType":5126,
			"count":24,
			"max":[
				1,
				1,
				1
			],
			"min":[
				-1,
				-1,
				-1
			],
			"type":"VEC3"
		},
		{
			"bufferView":22,
			"componentType":5126,
			"count":24,
			"type":"VEC2"
		},
		{
			"bufferView":23,
			"componentType":5126,
			"count":24,
			"type":"VEC3"
		},
		{
			"bufferView":24,
			"componentType":5126,
			"count":24,
			"max":[
				1,
				1,
				1
			],
			"min":[
				-1,
				-1,
				-1
			],
			"type":"VEC3"
		},
		{
			"bufferView":25,
			"componentType":5126,
			"count":24,
			"type":"VEC2"
		},
		{
			"bufferView":26,
			"componentType":5126,
			"count":24,
			"type":"VEC3"
		},
		{
			"bufferView":27,
			"componentType":5126,
			"count":24,
			"max":[
				1,
				1,
				1
			],
			"min":[
				-1,
				-1,
				-1
			],
			"type":"VEC3"
		},
		{
			"bufferView":28,
			"componentType":5126,
			"count":24,
			"type":"VEC2"
		},
		{
			"bufferView":29,
			"componentType":5126,
			"count":24,
			"type":"VEC3"
		}
	],
	"bufferViews":[
		{
			"buffer":0,
			"byteLength":2880,
			"byteOffset":0,
			"target":34962
		},
		{
			"buffer":0,
			"byteLength":1920,
			"byteOffset":2880,
			"target":34962
		},
		{
			"buffer":0,
			"byteLength":2880,
			"byteOffset":4800,
			"target":34962
		},
		{
			"buffer":0,
			"byteLength":480,
			"byteOffset":7680,
			"target":34963
		},
		{
			"buffer":0,
			"byteLength":288,
			"byteOffset":8160,
			"target":34962
		},
		{
			"buffer":0,
			"byteLength":192,
			"byteOffset":8448,
			"target":34962
		},
		{
			"buffer":0,
			"byteLength":288,
			"byteOffset":8640,
			"target":34962
		},
		{
			"buffer":0,
			"byteLength":72,
			"byteOffset":8928,
			"target":34963
		},
		{
			"buffer":0,
			"byteLength":23592,
			"byteOffset":9000,
			"target":34962
		},
		{
			"buffer":0,
			"byteLength":15728,
			"byteOffset":32592,
			"target":34962
		},
		{
			"buffer":0,
			"byteLength":23592,
			"byteOffset":48320,
			"target":34962
		},
		{
			"buffer":0,
			"byteLength":5808,
			"byteOffset":71912,
			"target":34963
		},
		{
			"buffer":0,
			"byteLength":23592,
			"byteOffset":77720,
			"target":34962
		},
		{
			"buffer":0,
			"byteLength":15728,
			"byteOffset":101312,
			"target":34962
		},
		{
			"buffer":0,
			"byteLength":23592,
			"byteOffset":117040,
			"target":34962
		},
		{
			"buffer":0,
			"byteLength":288,
			"byteOffset":140632,
			"target":34962
		},
		{
			"buffer":0,
			"byteLength":192,
			"byteOffset":140920,
			"target":34962
		},
		{
			"buffer":0,
			"byteLength":288,
			"byteOffset":141112,
			"target":34962
		},
		{
			"buffer":0,
			"byteLength":288,
			"byteOffset":141400,
			"target":34962
		},
		{
			"buffer":0,
			"byteLength":192,
			"byteOffset":141688,
			"target":34962
		},
		{
			"buffer":0,
			"byteLength":288,
			"byteOffset":141880,
			"target":34962
		},
		{
			"buffer":0,
			"byteLength":288,
			"byteOffset":142168,
			"target":34962
		},
		{
			"buffer":0,
			"byteLength":192,
			"byteOffset":142456,
			"target":34962
		},
		{
			"buffer":0,
			"byteLength":288,
			"byteOffset":142648,
			"target":34962
		},
		{
			"buffer":0,
			"byteLength":288,
			"byteOffset":142936,
			"target":34962
		},
		{
			"buffer":0,
			"byteLength":192,
			"byteOffset":143224,
			"target":34962
		},
		{
			"buffer":0,
			"byteLength":288,
			"byteOffset":143416,
			"target":34962
		},
		{
			"buffer":0,
			"byteLength":288,
			"byteOffset":143704,
			"target":34962
		},
		{
			"buffer":0,
			"byteLength":192,
			"byteOffset":143992,
			"target":34962
		},
		{
			"buffer":0,
			"byteLength":288,
			"byteOffset":144184,
			"target":34962
		}
	],
	"buffers":[
		{
			"byteLength":144472,
			"uri":"data:application/octet-stream;base64,"
		}
	]
}
