{
	"asset":{
		"generator":"Khronos glTF Blender I/O v3.5.30",
		"version":"2.0"
	},
	"scene":0,
	"scenes":[
		{
			"name":"Scene",
			"nodes":[
				0,
				1,
				2,
				3,
				4,
				5
			]
		}
	],
	"nodes":[
		{
			"mesh":0,
			"name":"Icosphere",
			"scale":[
				2.3610448837280273,
				0.36139219999313354,
				2.3610448837280273
			],
			"translation":[
				0,
				-0.8569900989532471,
				0
			]
		},
		{
			"mesh":1,
			"name":"Suzanne",
			"rotation":[
				-0.27458176016807556,
				-0.37125247716903687,
				-0.10594204813241959,
				0.8806547522544861
			],
			"scale":[
				0.5315818190574646,
				0.531581699848175,
				0.5315817594528198
			],
			"translation":[
				-0.9583269953727722,
				-0.3244157135486603,
				0.4387816786766052
			]
		},
		{
			"mesh":2,
			"name":"Cone",
			"rotation":[
				-0.1827418953180313,
				0.026104213669896126,
				-0.2791140675544739,
				0.9423478841781616
			],
			"scale":[
				0.36500927805900574,
				0.36500927805900574,
				0.3650093674659729
			],
			"translation":[
				0.9739322662353516,
				0.15495598316192627,
				-0.5338269472122192
			]
		},
		{
			"mesh":3,
			"name":"Icosphere.001",
			"rotation":[
				-0.16425085067749023,
				-0.026933806017041206,
				0.15868526697158813,
				0.9731984734535217
			],
			"scale":[
				0.49866676330566406,
				0.49866676330566406,
				0.4986668527126312
			],
			"translation":[
				0.6429715156555176,
				0.5230591297149658,
				1.1616699695587158
			]
		},
		{
			"mesh":4,
			"name":"Cube",
			"rotation":[
				-0.20596350729465485,
				-0.5658534169197083,
				0.25972840189933777,
				0.7549371719360352
			],
			"scale":[
				0.31583064794540405,
				0.3158305883407593,
				0.31583064794540405
			],
			"translation":[
				0,
				1.1043795347213745,
				0
			]
		},
		{
			"mesh":5,
			"name":"Torus.001",
			"rotation":[
				-0.6328296065330505,
				0.3015802502632141,
				-0.6906260848045349,
				0.1777971237897873
			],
			"scale":[
				0.9415063261985779,
				0.9415063261985779,
				0.9415063858032227
			],
			"translation":[
				-0.32321733236312866,
				0.6879289150238037,
				-1.1729999780654907
			]
		}
	],
	"materials":[
		{
			"doubleSided":true,
			"name":"Material",
			"pbrMetallicRoughness":{
				"baseColorFactor":[
					0.8000000715255737,
					0.07013510167598724,
					0,
					1
				],
				"metallicFactor":0,
				"roughnessFactor":0.5
			}
		},
		{
			"doubleSided":true,
			"name":"Material.006",
			"pbrMetallicRoughness":{
				"baseColorFactor":[
					0.07464161515235901,
					0.8000000715255737,
					0.03153447434306145,
					1
				],
				"metallicFactor":0,
				"roughnessFactor":0.5
			}
		},
		{
			"doubleSided":true,
			"name":"Material.002",
			"pbrMetallicRoughness":{
				"baseColorFactor":[
					0.8000000715255737,
					0.010482310317456722,
					0.03170919045805931,
					1
				],
				"metallicFactor":0,
				"roughnessFactor":0.5
			}
		},
		{
			"doubleSided":true,
			"name":"Material.001",
			"pbrMetallicRoughness":{
				"baseColorFactor":[
					0.013165010139346123,
					0,
					0.8000000715255737,
					1
				],
				"metallicFactor":0,
				"roughnessFactor":0.5
			}
		},
		{
			"doubleSided":true,
			"name":"Material.003",
			"pbrMetallicRoughness":{
				"baseColorFactor":[
					0.5580512881278992,
					0.06699994206428528,
					0.8000000715255737,
					1
				],
				"metallicFactor":0,
				"roughnessFactor":0.5
			}
		},
		{
			"doubleSided":true,
			"name":"Material.005",
			"pbrMetallicRoughness":{
				"baseColorFactor":[
					1,
					0.6714285612106323,
					1,
					1
				],
				"metallicFactor":0,
				"roughnessFactor":0.5
			}
		},
		{
			"doubleSided":true,
			"name":"Material.004",
			"pbrMetallicRoughness":{
				"baseColorFactor":[
					0.8000000715255737,
					0.6248869299888611,
					0,
					1
				],
				"metallicFactor":0,
				"roughnessFactor":0.5
			}
		}
	],
	"meshes":[
		{
			"name":"Icosphere",
			"primitives":[
				{
					"attributes":{
						"POSITION":0,
						"TEXCOORD_0":1,
						"NORMAL":2
					},
					"indices":3,
					"material":0
				},
				{
					"attributes":{
						"POSITION":4,
						"TEXCOORD_0":5,
						"NORMAL":6
					},
					"indices":7,
					"material":1
				}
			]
		},
		{
			"name":"Suzanne",
			"primitives":[
				{
					"attributes":{
						"POSITION":8,
						"TEXCOORD_0":9,
						"NORMAL":10
					},
					"indices":11,
					"material":2
				}
			]
		},
		{
			"name":"Cone",
			"primitives":[
				{
					"attributes":{
						"POSITION":12,
						"TEXCOORD_0":13,
						"NORMAL":14
					},
					"indices":15,
					"material":3
				}
			]
		},
		{
			"name":"Icosphere.001",
			"primitives":[
				{
					"attributes":{
						"POSITION":16,
						"TEXCOORD_0":17,
						"NORMAL":18
					},
					"indices":19,
					"material":4
				}
			]
		},
		{
			"name":"Cube.001",
			"primitives":[
				{
					"attributes":{
						"POSITION":20,
						"TEXCOORD_0":21,
						"NORMAL":22
					},
					"indices":23,
					"material":5
				}
			]
		},
		{
			"name":"Torus.001",
			"primitives":[
				{
					"attributes":{
						"POSITION":24,
						"TEXCOORD_0":25,
						"NORMAL":26
					},
					"indices":27,
					"material":6
				}
			]
		}
	],
	"accessors":[
		{
			"bufferView":0,
			"componentType":5126,
			"count":150,
			"max":[
				0.9510578513145447,
				0.9113714694976807,
				0.9999999403953552
			],
			"min":[
				-0.9510578513145447,
				-5.9004011154174805,
				-0.9999999403953552
			],
			"type":"VEC3"
		},
		{
			"bufferView":1,
			"componentType":5126,
			"count":150,
			"type":"VEC2"
		},
		{
			"bufferView":2,
			"componentType":5126,
			"count":150,
			"type":"VEC3"
		},
		{
			"bufferView":3,
			"componentType":5123,
			"count":150,
			"type":"SCALAR"
		},
		{
			"bufferView":4,
			"componentType":5126,
			"count":90,
			"max":[
				0.9510578513145447,
				1.3856338262557983,
				0.9999999403953552
			],
			"min":[
				-0.9510578513145447,
				0,
				-0.9999999403953552
			],
			"type":"VEC3"
		},
		{
			"bufferView":5,
			"componentType":5126,
			"count":90,
			"type":"VEC2"
		},
		{
			"bufferView":6,
			"componentType":5126,
			"count":90,
			"type":"VEC3"
		},
		{
			"bufferView":7,
			"componentType":5123,
			"count":90,
			"type":"SCALAR"
		},
		{
			"bufferView":8,
			"componentType":5126,
			"count":1966,
			"max":[
				1.3671875,
				0.984375,
				0.8515625
			],
			"min":[
				-1.3671875,
				-0.984375,
				-0.8515625
			],
			"type":"VEC3"
		},
		{
			"bufferView":9,
			"componentType":5126,
			"count":1966,
			"type":"VEC2"
		},
		{
			"bufferView":10,
			"componentType":5126,
			"count":1966,
			"type":"VEC3"
		},
		{
			"bufferView":11,
			"componentType":5123,
			"count":2904,
			"type":"SCALAR"
		},
		{
			"bufferView":12,
			"componentType":5126,
			"count":128,
			"max":[
				1,
				1,
				1
			],
			"min":[
				-1,
				-1,
				-1
			],
			"type":"VEC3"
		},
		{
			"bufferView":13,
			"componentType":5126,
			"count":128,
			"type":"VEC2"
		},
		{
			"bufferView":14,
			"componentType":5126,
			"count":128,
			"type":"VEC3"
		},
		{
			"bufferView":15,
			"componentType":5123,
			"count":186,
			"type":"SCALAR"
		},
		{
			"bufferView":16,
			"componentType":5126,
			"count":60,
			"max":[
				0.8944249749183655,
				1,
				0.8506399989128113
			],
			"min":[
				-0.8944249749183655,
				-1,
				-0.8506399989128113
			],
			"type":"VEC3"
		},
		{
			"bufferView":17,
			"componentType":5126,
			"count":60,
			"type":"VEC2"
		},
		{
			"bufferView":18,
			"componentType":5126,
			"count":60,
			"type":"VEC3"
		},
		{
			"bufferView":19,
			"componentType":5123,
			"count":60,
			"type":"SCALAR"
		},
		{
			"bufferView":20,
			"componentType":5126,
			"count":24,
			"max":[
				1,
				1,
				1
			],
			"min":[
				-1,
				-1,
				-1
			],
			"type":"VEC3"
		},
		{
			"bufferView":21,
			"componentType":5126,
			"count":24,
			"type":"VEC2"
		},
		{
			"bufferView":22,
			"componentType":5126,
			"count":24,
			"type":"VEC3"
		},
		{
			"bufferView":23,
			"componentType":5123,
			"count":36,
			"type":"SCALAR"
		},
		{
			"bufferView":24,
			"componentType":5126,
			"count":2100,
			"max":[
				0.6800000071525574,
				0.1792321652173996,
				0.6797590255737305
			],
			"min":[
				-0.6790362596511841,
				-0.1792321652173996,
				-0.6797590255737305
			],
			"type":"VEC3"
		},
		{
			"bufferView":25,
			"componentType":5126,
			"count":2100,
			"type":"VEC2"
		},
		{
			"bufferView":26,
			"componentType":5126,
			"count":2100,
			"type":"VEC3"
		},
		{
			"bufferView":27,
			"componentType":5123,
			"count":12036,
			"type":"SCALAR"
		}
	],
	"bufferViews":[
		{
			"buffer":0,
			"byteLength":1800,
			"byteOffset":0,
			"target":34962
		},
		{
			"buffer":0,
			"byteLength":1200,
			"byteOffset":1800,
			"target":34962
		},
		{
			"buffer":0,
			"byteLength":1800,
			"byteOffset":3000,
			"target":34962
		},
		{
			"buffer":0,
			"byteLength":300,
			"byteOffset":4800,
			"target":34963
		},
		{
			"buffer":0,
			"byteLength":1080,
			"byteOffset":5100,
			"target":34962
		},
		{
			"buffer":0,
			"byteLength":720,
			"byteOffset":6180,
			"target":34962
		},
		{
			"buffer":0,
			"byteLength":1080,
			"byteOffset":6900,
			"target":34962
		},
		{
			"buffer":0,
			"byteLength":180,
			"byteOffset":7980,
			"target":34963
		},
		{
			"buffer":0,
			"byteLength":23592,
			"byteOffset":8160,
			"target":34962
		},
		{
			"buffer":0,
			"byteLength":15728,
			"byteOffset":31752,
			"target":34962
		},
		{
			"buffer":0,
			"byteLength":23592,
			"byteOffset":47480,
			"target":34962
		},
		{
			"buffer":0,
			"byteLength":5808,
			"byteOffset":71072,
			"target":34963
		},
		{
			"buffer":0,
			"byteLength":1536,
			"byteOffset":76880,
			"target":34962
		},
		{
			"buffer":0,
			"byteLength":1024,
			"byteOffset":78416,
			"target":34962
		},
		{
			"buffer":0,
			"byteLength":1536,
			"byteOffset":79440,
			"target":34962
		},
		{
			"buffer":0,
			"byteLength":372,
			"byteOffset":80976,
			"target":34963
		},
		{
			"buffer":0,
			"byteLength":720,
			"byteOffset":81348,
			"target":34962
		},
		{
			"buffer":0,
			"byteLength":480,
			"byteOffset":82068,
			"target":34962
		},
		{
			"buffer":0,
			"byteLength":720,
			"byteOffset":82548,
			"target":34962
		},
		{
			"buffer":0,
			"byteLength":120,
			"byteOffset":83268,
			"target":34963
		},
		{
			"buffer":0,
			"byteLength":288,
			"byteOffset":83388,
			"target":34962
		},
		{
			"buffer":0,
			"byteLength":192,
			"byteOffset":83676,
			"target":34962
		},
		{
			"buffer":0,
			"byteLength":288,
			"byteOffset":83868,
			"target":34962
		},
		{
			"buffer":0,
			"byteLength":72,
			"byteOffset":84156,
			"target":34963
		},
		{
			"buffer":0,
			"byteLength":25200,
			"byteOffset":84228,
			"target":34962
		},
		{
			"buffer":0,
			"byteLength":16800,
			"byteOffset":109428,
			"target":34962
		},
		{
			"buffer":0,
			"byteLength":25200,
			"byteOffset":126228,
			"target":34962
		},
		{
			"buffer":0,
			"byteLength":24072,
			"byteOffset":151428,
			"target":34963
		}
	],
	"buffers":[
		{
			"byteLength":175500,
			"uri":"data:application/octet-stream;base64,"
		}
	]
}
