{
	"asset":{
		"generator":"Khronos glTF Blender I/O v3.5.30",
		"version":"2.0"
	},
	"scene":0,
	"scenes":[
		{
			"name":"Scene",
			"nodes":[
				0
			]
		}
	],
	"nodes":[
		{
			"mesh":0,
			"name":"Icosphere"
		}
	],
	"materials":[
		{
			"doubleSided":true,
			"name":"Material.001",
			"pbrMetallicRoughness":{
				"baseColorFactor":[
					0.01331101544201374,
					0.09978096187114716,
					0.8000000715255737,
					1
				],
				"metallicFactor":0,
				"roughnessFactor":0.5
			}
		},
		{
			"doubleSided":true,
			"name":"Material.002",
			"pbrMetallicRoughness":{
				"baseColorFactor":[
					0.010973481461405754,
					0.23955003917217255,
					0,
					1
				],
				"metallicFactor":0,
				"roughnessFactor":0.5
			}
		}
	],
	"meshes":[
		{
			"name":"Icosphere",
			"primitives":[
				{
					"attributes":{
						"POSITION":0,
						"TEXCOORD_0":1,
						"NORMAL":2
					},
					"indices":3,
					"material":0
				},
				{
					"attributes":{
						"POSITION":4,
						"TEXCOORD_0":5,
						"NORMAL":6
					},
					"indices":7,
					"material":1
				}
			]
		}
	],
	"accessors":[
		{
			"bufferView":0,
			"componentType":5126,
			"count":696,
			"max":[
				0.9066346883773804,
				0.9133536219596863,
				0.9051461219787598
			],
			"min":[
				-0.9075837135314941,
				-0.9133536219596863,
				-0.8997509479522705
			],
			"type":"VEC3"
		},
		{
			"bufferView":1,
			"componentType":5126,
			"count":696,
			"type":"VEC2"
		},
		{
			"bufferView":2,
			"componentType":5126,
			"count":696,
			"type":"VEC3"
		},
		{
			"bufferView":3,
			"componentType":5123,
			"count":3144,
			"type":"SCALAR"
		},
		{
			"bufferView":4,
			"componentType":5126,
			"count":1034,
			"max":[
				0.9167774319648743,
				0.8931479454040527,
				0.9325408935546875
			],
			"min":[
				-0.8897789716720581,
				-0.8038949370384216,
				-0.954521656036377
			],
			"type":"VEC3"
		},
		{
			"bufferView":5,
			"componentType":5126,
			"count":1034,
			"type":"VEC2"
		},
		{
			"bufferView":6,
			"componentType":5126,
			"count":1034,
			"type":"VEC3"
		},
		{
			"bufferView":7,
			"componentType":5123,
			"count":5160,
			"type":"SCALAR"
		}
	],
	"bufferViews":[
		{
			"buffer":0,
			"byteLength":8352,
			"byteOffset":0,
			"target":34962
		},
		{
			"buffer":0,
			"byteLength":5568,
			"byteOffset":8352,
			"target":34962
		},
		{
			"buffer":0,
			"byteLength":8352,
			"byteOffset":13920,
			"target":34962
		},
		{
			"buffer":0,
			"byteLength":6288,
			"byteOffset":22272,
			"target":34963
		},
		{
			"buffer":0,
			"byteLength":12408,
			"byteOffset":28560,
			"target":34962
		},
		{
			"buffer":0,
			"byteLength":8272,
			"byteOffset":40968,
			"target":34962
		},
		{
			"buffer":0,
			"byteLength":12408,
			"byteOffset":49240,
			"target":34962
		},
		{
			"buffer":0,
			"byteLength":10320,
			"byteOffset":61648,
			"target":34963
		}
	],
	"buffers":[
		{
			"byteLength":71968,
			"uri":"data:application/octet-stream;base64,"
		}
	]
}
