{
	"asset":{
		"generator":"Khronos glTF Blender I/O v3.5.30",
		"version":"2.0"
	},
	"scene":0,
	"scenes":[
		{
			"name":"Scene",
			"nodes":[
				0,
				1,
				2,
				3,
				4,
				5,
				6,
				7
			]
		}
	],
	"nodes":[
		{
			"mesh":0,
			"name":"Cube",
			"rotation":[
				0.3535533845424652,
				-0.1464466005563736,
				-0.3535533845424652,
				0.8535534143447876
			],
			"scale":[
				0.3339802622795105,
				0.3339802324771881,
				0.3339802324771881
			],
			"translation":[
				0,
				-0.9036049842834473,
				0
			]
		},
		{
			"mesh":1,
			"name":"Sphere",
			"rotation":[
				-0.3904910087585449,
				0.2929755449295044,
				-0.23277908563613892,
				0.8411278128623962
			],
			"scale":[
				0.7367063164710999,
				0.1491026133298874,
				0.7367063164710999
			],
			"translation":[
				-1.1537072658538818,
				0.18553833663463593,
				1.4160106182098389
			]
		},
		{
			"mesh":2,
			"name":"Sphere.001",
			"rotation":[
				-0.27130818367004395,
				-0.3024967610836029,
				0.7142245173454285,
				0.5698868632316589
			],
			"scale":[
				0.10867279022932053,
				0.7367063760757446,
				0.7367064356803894
			],
			"translation":[
				1.5322966575622559,
				0.11988261342048645,
				0.8058236837387085
			]
		},
		{
			"mesh":3,
			"name":"Sphere.002",
			"rotation":[
				0.38905099034309387,
				-0.47569209337234497,
				-0.1343459188938141,
				0.7773721814155579
			],
			"scale":[
				0.7367063760757446,
				0.7367063760757446,
				0.21639713644981384
			],
			"translation":[
				-0.6425899267196655,
				0.0044809323735535145,
				-1.3828067779541016
			]
		},
		{
			"mesh":4,
			"name":"Suzanne",
			"rotation":[
				-0.19587600231170654,
				0.07566855102777481,
				0.1361374855041504,
				0.9681804776191711
			],
			"scale":[
				0.4507099688053131,
				0.4507099390029907,
				0.45070990920066833
			],
			"translation":[
				0,
				0.5503385663032532,
				0
			]
		},
		{
			"mesh":5,
			"name":"Suzanne.001",
			"rotation":[
				-0.056637540459632874,
				0.14150738716125488,
				0.04331667721271515,
				0.9873659610748291
			],
			"scale":[
				0.6640971302986145,
				0.06243289262056351,
				0.5880380868911743
			],
			"translation":[
				0.6761780977249146,
				0.4170454144477844,
				-1.372246265411377
			]
		},
		{
			"mesh":6,
			"name":"Suzanne.002",
			"rotation":[
				0.6171432137489319,
				0.10216835141181946,
				0.2141912281513214,
				0.7502119541168213
			],
			"scale":[
				0.6635876893997192,
				0.11665939539670944,
				0.5854994654655457
			],
			"translation":[
				0.5987439751625061,
				0.33166494965553284,
				1.417372703552246
			]
		},
		{
			"mesh":7,
			"name":"Suzanne.003",
			"rotation":[
				0.5713972449302673,
				0.6334381699562073,
				-0.3487042486667633,
				0.3881579339504242
			],
			"scale":[
				0.9693531394004822,
				0.1518743336200714,
				0.6624707579612732
			],
			"translation":[
				-1.2185866832733154,
				0.059561725705862045,
				-0.42127859592437744
			]
		}
	],
	"materials":[
		{
			"doubleSided":true,
			"name":"Material.001",
			"pbrMetallicRoughness":{
				"baseColorFactor":[
					0.21834881603717804,
					0.8000000715255737,
					0.5456439852714539,
					1
				],
				"metallicFactor":0,
				"roughnessFactor":0.5
			}
		},
		{
			"doubleSided":true,
			"name":"Material",
			"pbrMetallicRoughness":{
				"baseColorFactor":[
					0.8000000715255737,
					0.08040072023868561,
					0.08656704425811768,
					1
				],
				"metallicFactor":0,
				"roughnessFactor":0.5
			}
		}
	],
	"meshes":[
		{
			"name":"Cube.001",
			"primitives":[
				{
					"attributes":{
						"POSITION":0,
						"TEXCOORD_0":1,
						"NORMAL":2
					},
					"indices":3
				}
			]
		},
		{
			"name":"Sphere",
			"primitives":[
				{
					"attributes":{
						"POSITION":4,
						"TEXCOORD_0":5,
						"NORMAL":6
					},
					"indices":7,
					"material":0
				}
			]
		},
		{
			"name":"Sphere.001",
			"primitives":[
				{
					"attributes":{
						"POSITION":8,
						"TEXCOORD_0":9,
						"NORMAL":10
					},
					"indices":7,
					"material":0
				}
			]
		},
		{
			"name":"Sphere.002",
			"primitives":[
				{
					"attributes":{
						"POSITION":11,
						"TEXCOORD_0":12,
						"NORMAL":13
					},
					"indices":7,
					"material":0
				}
			]
		},
		{
			"name":"Suzanne.003",
			"primitives":[
				{
					"attributes":{
						"POSITION":14,
						"TEXCOORD_0":15,
						"NORMAL":16
					},
					"indices":17,
					"material":1
				}
			]
		},
		{
			"name":"Suzanne.004",
			"primitives":[
				{
					"attributes":{
						"POSITION":18,
						"TEXCOORD_0":19,
						"NORMAL":20
					},
					"indices":17,
					"material":1
				}
			]
		},
		{
			"name":"Suzanne.005",
			"primitives":[
				{
					"attributes":{
						"POSITION":21,
						"TEXCOORD_0":22,
						"NORMAL":23
					},
					"indices":17,
					"material":1
				}
			]
		},
		{
			"name":"Suzanne.006",
			"primitives":[
				{
					"attributes":{
						"POSITION":24,
						"TEXCOORD_0":25,
						"NORMAL":26
					},
					"indices":17,
					"material":1
				}
			]
		}
	],
	"accessors":[
		{
			"bufferView":0,
			"componentType":5126,
			"count":24,
			"max":[
				1,
				1,
				1
			],
			"min":[
				-1,
				-1,
				-1
			],
			"type":"VEC3"
		},
		{
			"bufferView":1,
			"componentType":5126,
			"count":24,
			"type":"VEC2"
		},
		{
			"bufferView":2,
			"componentType":5126,
			"count":24,
			"type":"VEC3"
		},
		{
			"bufferView":3,
			"componentType":5123,
			"count":36,
			"type":"SCALAR"
		},
		{
			"bufferView":4,
			"componentType":5126,
			"count":559,
			"max":[
				0.9999997019767761,
				1,
				0.9999993443489075
			],
			"min":[
				-0.9999990463256836,
				-1,
				-1
			],
			"type":"VEC3"
		},
		{
			"bufferView":5,
			"componentType":5126,
			"count":559,
			"type":"VEC2"
		},
		{
			"bufferView":6,
			"componentType":5126,
			"count":559,
			"type":"VEC3"
		},
		{
			"bufferView":7,
			"componentType":5123,
			"count":2880,
			"type":"SCALAR"
		},
		{
			"bufferView":8,
			"componentType":5126,
			"count":559,
			"max":[
				0.9999997019767761,
				1,
				0.9999993443489075
			],
			"min":[
				-0.9999990463256836,
				-1,
				-1
			],
			"type":"VEC3"
		},
		{
			"bufferView":9,
			"componentType":5126,
			"count":559,
			"type":"VEC2"
		},
		{
			"bufferView":10,
			"componentType":5126,
			"count":559,
			"type":"VEC3"
		},
		{
			"bufferView":11,
			"componentType":5126,
			"count":559,
			"max":[
				0.9999997019767761,
				1,
				0.9999993443489075
			],
			"min":[
				-0.9999990463256836,
				-1,
				-1
			],
			"type":"VEC3"
		},
		{
			"bufferView":12,
			"componentType":5126,
			"count":559,
			"type":"VEC2"
		},
		{
			"bufferView":13,
			"componentType":5126,
			"count":559,
			"type":"VEC3"
		},
		{
			"bufferView":14,
			"componentType":5126,
			"count":8157,
			"max":[
				1.328185796737671,
				0.9392362236976624,
				0.8224414587020874
			],
			"min":[
				-1.328185796737671,
				-0.971822202205658,
				-0.7782661318778992
			],
			"type":"VEC3"
		},
		{
			"bufferView":15,
			"componentType":5126,
			"count":8157,
			"type":"VEC2"
		},
		{
			"bufferView":16,
			"componentType":5126,
			"count":8157,
			"type":"VEC3"
		},
		{
			"bufferView":17,
			"componentType":5123,
			"count":47232,
			"type":"SCALAR"
		},
		{
			"bufferView":18,
			"componentType":5126,
			"count":8157,
			"max":[
				1.328185796737671,
				0.9392362236976624,
				0.8224414587020874
			],
			"min":[
				-1.328185796737671,
				-0.971822202205658,
				-0.7782661318778992
			],
			"type":"VEC3"
		},
		{
			"bufferView":19,
			"componentType":5126,
			"count":8157,
			"type":"VEC2"
		},
		{
			"bufferView":20,
			"componentType":5126,
			"count":8157,
			"type":"VEC3"
		},
		{
			"bufferView":21,
			"componentType":5126,
			"count":8157,
			"max":[
				1.328185796737671,
				0.9392362236976624,
				0.8224414587020874
			],
			"min":[
				-1.328185796737671,
				-0.971822202205658,
				-0.7782661318778992
			],
			"type":"VEC3"
		},
		{
			"bufferView":22,
			"componentType":5126,
			"count":8157,
			"type":"VEC2"
		},
		{
			"bufferView":23,
			"componentType":5126,
			"count":8157,
			"type":"VEC3"
		},
		{
			"bufferView":24,
			"componentType":5126,
			"count":8157,
			"max":[
				1.328185796737671,
				0.9392362236976624,
				0.8224414587020874
			],
			"min":[
				-1.328185796737671,
				-0.971822202205658,
				-0.7782661318778992
			],
			"type":"VEC3"
		},
		{
			"bufferView":25,
			"componentType":5126,
			"count":8157,
			"type":"VEC2"
		},
		{
			"bufferView":26,
			"componentType":5126,
			"count":8157,
			"type":"VEC3"
		}
	],
	"bufferViews":[
		{
			"buffer":0,
			"byteLength":288,
			"byteOffset":0,
			"target":34962
		},
		{
			"buffer":0,
			"byteLength":192,
			"byteOffset":288,
			"target":34962
		},
		{
			"buffer":0,
			"byteLength":288,
			"byteOffset":480,
			"target":34962
		},
		{
			"buffer":0,
			"byteLength":72,
			"byteOffset":768,
			"target":34963
		},
		{
			"buffer":0,
			"byteLength":6708,
			"byteOffset":840,
			"target":34962
		},
		{
			"buffer":0,
			"byteLength":4472,
			"byteOffset":7548,
			"target":34962
		},
		{
			"buffer":0,
			"byteLength":6708,
			"byteOffset":12020,
			"target":34962
		},
		{
			"buffer":0,
			"byteLength":5760,
			"byteOffset":18728,
			"target":34963
		},
		{
			"buffer":0,
			"byteLength":6708,
			"byteOffset":24488,
			"target":34962
		},
		{
			"buffer":0,
			"byteLength":4472,
			"byteOffset":31196,
			"target":34962
		},
		{
			"buffer":0,
			"byteLength":6708,
			"byteOffset":35668,
			"target":34962
		},
		{
			"buffer":0,
			"byteLength":6708,
			"byteOffset":42376,
			"target":34962
		},
		{
			"buffer":0,
			"byteLength":4472,
			"byteOffset":49084,
			"target":34962
		},
		{
			"buffer":0,
			"byteLength":6708,
			"byteOffset":53556,
			"target":34962
		},
		{
			"buffer":0,
			"byteLength":97884,
			"byteOffset":60264,
			"target":34962
		},
		{
			"buffer":0,
			"byteLength":65256,
			"byteOffset":158148,
			"target":34962
		},
		{
			"buffer":0,
			"byteLength":97884,
			"byteOffset":223404,
			"target":34962
		},
		{
			"buffer":0,
			"byteLength":94464,
			"byteOffset":321288,
			"target":34963
		},
		{
			"buffer":0,
			"byteLength":97884,
			"byteOffset":415752,
			"target":34962
		},
		{
			"buffer":0,
			"byteLength":65256,
			"byteOffset":513636,
			"target":34962
		},
		{
			"buffer":0,
			"byteLength":97884,
			"byteOffset":578892,
			"target":34962
		},
		{
			"buffer":0,
			"byteLength":97884,
			"byteOffset":676776,
			"target":34962
		},
		{
			"buffer":0,
			"byteLength":65256,
			"byteOffset":774660,
			"target":34962
		},
		{
			"buffer":0,
			"byteLength":97884,
			"byteOffset":839916,
			"target":34962
		},
		{
			"buffer":0,
			"byteLength":97884,
			"byteOffset":937800,
			"target":34962
		},
		{
			"buffer":0,
			"byteLength":65256,
			"byteOffset":1035684,
			"target":34962
		},
		{
			"buffer":0,
			"byteLength":97884,
			"byteOffset":1100940,
			"target":34962
		}
	],
	"buffers":[
		{
			"byteLength":1198824,
			"uri":"data:application/octet-stream;base64,"
		}
	]
}
