{
  "asset": {
    "generator": "Khronos glTF Blender I/O v1.6.16",
    "version": "2.0"
  },
  "scene": 0,
  "scenes": [
    {
      "name": "Scene",
      "nodes": [
        0
      ]
    }
  ],
  "nodes": [
    {
      "mesh": 0,
      "name": "Drill_01"
    }
  ],
  "materials": [
    {
      "doubleSided": true,
      "name": "Drill_01",
      "normalTexture": {
        "index": 0
      },
      "pbrMetallicRoughness": {
        "baseColorTexture": {
          "index": 1
        },
        "metallicRoughnessTexture": {
          "index": 2
        }
      }
    }
  ],
  "meshes": [
    {
      "name": "Mesh",
      "primitives": [
        {
          "attributes": {
            "POSITION": 0,
            "NORMAL": 1,
            "TEXCOORD_0": 2
          },
          "indices": 3,
          "material": 0
        }
      ]
    }
  ],
  "textures": [
    {
      "sampler": 0,
      "source": 0
    },
    {
      "sampler": 0,
      "source": 1
    },
    {
      "sampler": 0,
      "source": 2
    }
  ],
  "images": [
    {
      "mimeType": "image/jpeg",
      "name": "Drill_01_nor_gl",
      "uri": "textures/Drill_01_nor_gl_1k.jpg"
    },
    {
      "mimeType": "image/jpeg",
      "name": "Drill_01_diff",
      "uri": "textures/Drill_01_diff_1k.jpg"
    },
    {
      "mimeType": "image/jpeg",
      "name": "Drill_01_metallic-Drill_01_roughness",
      "uri": "textures/Drill_01_arm_1k.jpg"
    }
  ],
  "accessors": [
    {
      "bufferView": 0,
      "componentType": 5126,
      "count": 2267,
      "max": [
        0.054843105375766754,
        0.18229177594184875,
        0.023583881556987762
      ],
      "min": [
        -0.12803688645362854,
        -0.0027705803513526917,
        -0.028831608593463898
      ],
      "type": "VEC3"
    },
    {
      "bufferView": 1,
      "componentType": 5126,
      "count": 2267,
      "type": "VEC3"
    },
    {
      "bufferView": 2,
      "componentType": 5126,
      "count": 2267,
      "type": "VEC2"
    },
    {
      "bufferView": 3,
      "componentType": 5123,
      "count": 8778,
      "type": "SCALAR"
    }
  ],
  "bufferViews": [
    {
      "buffer": 0,
      "byteLength": 27204,
      "byteOffset": 0
    },
    {
      "buffer": 0,
      "byteLength": 27204,
      "byteOffset": 27204
    },
    {
      "buffer": 0,
      "byteLength": 18136,
      "byteOffset": 54408
    },
    {
      "buffer": 0,
      "byteLength": 17556,
      "byteOffset": 72544
    }
  ],
  "samplers": [
    {
      "magFilter": 9729,
      "minFilter": 9987
    }
  ],
  "buffers": [
    {
      "byteLength": 90100,
      "uri": "Drill_01.bin"
    }
  ]
}