{
  "asset": {
    "generator": "Khronos glTF Blender I/O v1.7.33",
    "version": "2.0"
  },
  "scene": 0,
  "scenes": [
    {
      "name": "Scene",
      "nodes": [
        0,
        1,
        2
      ]
    }
  ],
  "nodes": [
    {
      "mesh": 0,
      "name": "dutch_ship_large_02_rigging"
    },
    {
      "mesh": 1,
      "name": "dutch_ship_large_02_hull"
    },
    {
      "mesh": 2,
      "name": "dutch_ship_large_02_sails"
    }
  ],
  "materials": [
    {
      "doubleSided": true,
      "name": "dutch_ship_large_02_rigging",
      "normalTexture": {
        "index": 0
      },
      "pbrMetallicRoughness": {
        "baseColorTexture": {
          "index": 1
        },
        "metallicRoughnessTexture": {
          "index": 2
        }
      }
    },
    {
      "doubleSided": true,
      "name": "dutch_ship_large_02_hull",
      "normalTexture": {
        "index": 3
      },
      "pbrMetallicRoughness": {
        "baseColorTexture": {
          "index": 4
        },
        "metallicRoughnessTexture": {
          "index": 5
        }
      }
    },
    {
      "alphaCutoff": 0.5,
      "alphaMode": "MASK",
      "doubleSided": true,
      "name": "dutch_ship_large_02_sails",
      "normalTexture": {
        "index": 6
      },
      "pbrMetallicRoughness": {
        "baseColorTexture": {
          "index": 7
        },
        "metallicFactor": 0,
        "metallicRoughnessTexture": {
          "index": 8
        }
      }
    }
  ],
  "meshes": [
    {
      "name": "x-Boats-Dutch-large-rigging-joined.001",
      "primitives": [
        {
          "attributes": {
            "POSITION": 0,
            "NORMAL": 1,
            "TEXCOORD_0": 2
          },
          "indices": 3,
          "material": 0
        }
      ]
    },
    {
      "name": "x-Boats-Dutch-large-baseB-joined.001",
      "primitives": [
        {
          "attributes": {
            "POSITION": 4,
            "NORMAL": 5,
            "TEXCOORD_0": 6
          },
          "indices": 7,
          "material": 1
        }
      ]
    },
    {
      "name": "Plane.038",
      "primitives": [
        {
          "attributes": {
            "POSITION": 8,
            "NORMAL": 9,
            "TEXCOORD_0": 10
          },
          "indices": 11,
          "material": 2
        }
      ]
    }
  ],
  "textures": [
    {
      "sampler": 0,
      "source": 0
    },
    {
      "sampler": 0,
      "source": 1
    },
    {
      "sampler": 0,
      "source": 2
    },
    {
      "sampler": 0,
      "source": 3
    },
    {
      "sampler": 0,
      "source": 4
    },
    {
      "sampler": 0,
      "source": 5
    },
    {
      "sampler": 0,
      "source": 6
    },
    {
      "sampler": 0,
      "source": 7
    },
    {
      "sampler": 0,
      "source": 8
    }
  ],
  "images": [
    {
      "mimeType": "image/jpeg",
      "name": "dutch_ship_large_02_rigging_nor_gl",
      "uri": "textures/dutch_ship_large_02_rigging_nor_gl_1k.jpg"
    },
    {
      "mimeType": "image/jpeg",
      "name": "dutch_ship_large_02_rigging_diff",
      "uri": "textures/dutch_ship_large_02_rigging_diff_1k.jpg"
    },
    {
      "mimeType": "image/jpeg",
      "name": "dutch_ship_large_02_rigging_metal-dutch_ship_large_02_rigging_rough",
      "uri": "textures/dutch_ship_large_02_rigging_arm_1k.jpg"
    },
    {
      "mimeType": "image/jpeg",
      "name": "dutch_ship_large_02_hull_nor_gl",
      "uri": "textures/dutch_ship_large_02_hull_nor_gl_1k.jpg"
    },
    {
      "mimeType": "image/jpeg",
      "name": "dutch_ship_large_02_hull_diff",
      "uri": "textures/dutch_ship_large_02_hull_diff_1k.jpg"
    },
    {
      "mimeType": "image/jpeg",
      "name": "dutch_ship_large_02_hull_metal-dutch_ship_large_02_hull_rough",
      "uri": "textures/dutch_ship_large_02_hull_arm_1k.jpg"
    },
    {
      "mimeType": "image/jpeg",
      "name": "dutch_ship_large_02_sails_nor_gl",
      "uri": "textures/dutch_ship_large_02_sails_nor_gl_1k.jpg"
    },
    {
      "mimeType": "image/jpeg",
      "name": "dutch_ship_large_02_sails_diff-dutch_ship_large_02_sails_alpha",
      "uri": "textures/dutch_ship_large_02_sails_diff_1k.jpg"
    },
    {
      "mimeType": "image/jpeg",
      "name": "dutch_ship_large_02_sails_rough",
      "uri": "textures/dutch_ship_large_02_sails_arm_1k.jpg"
    }
  ],
  "accessors": [
    {
      "bufferView": 0,
      "componentType": 5126,
      "count": 38192,
      "max": [
        4.184931755065918,
        30.16288948059082,
        20.426368713378906
      ],
      "min": [
        -4.175026893615723,
        2.9227380752563477,
        -13.824846267700195
      ],
      "type": "VEC3"
    },
    {
      "bufferView": 1,
      "componentType": 5126,
      "count": 38192,
      "type": "VEC3"
    },
    {
      "bufferView": 2,
      "componentType": 5126,
      "count": 38192,
      "type": "VEC2"
    },
    {
      "bufferView": 3,
      "componentType": 5123,
      "count": 100710,
      "type": "SCALAR"
    },
    {
      "bufferView": 4,
      "componentType": 5126,
      "count": 50943,
      "max": [
        4.193715572357178,
        10.068502426147461,
        17.35657501220703
      ],
      "min": [
        -4.19370174407959,
        -1.9159564971923828,
        -13.019145965576172
      ],
      "type": "VEC3"
    },
    {
      "bufferView": 5,
      "componentType": 5126,
      "count": 50943,
      "type": "VEC3"
    },
    {
      "bufferView": 6,
      "componentType": 5126,
      "count": 50943,
      "type": "VEC2"
    },
    {
      "bufferView": 7,
      "componentType": 5123,
      "count": 166164,
      "type": "SCALAR"
    },
    {
      "bufferView": 8,
      "componentType": 5126,
      "count": 4020,
      "max": [
        4.344001293182373,
        23.06194496154785,
        12.593894958496094
      ],
      "min": [
        -3.7637031078338623,
        6.281797409057617,
        -1.6377068758010864
      ],
      "type": "VEC3"
    },
    {
      "bufferView": 9,
      "componentType": 5126,
      "count": 4020,
      "type": "VEC3"
    },
    {
      "bufferView": 10,
      "componentType": 5126,
      "count": 4020,
      "type": "VEC2"
    },
    {
      "bufferView": 11,
      "componentType": 5123,
      "count": 22644,
      "type": "SCALAR"
    }
  ],
  "bufferViews": [
    {
      "buffer": 0,
      "byteLength": 458304,
      "byteOffset": 0
    },
    {
      "buffer": 0,
      "byteLength": 458304,
      "byteOffset": 458304
    },
    {
      "buffer": 0,
      "byteLength": 305536,
      "byteOffset": 916608
    },
    {
      "buffer": 0,
      "byteLength": 201420,
      "byteOffset": 1222144
    },
    {
      "buffer": 0,
      "byteLength": 611316,
      "byteOffset": 1423564
    },
    {
      "buffer": 0,
      "byteLength": 611316,
      "byteOffset": 2034880
    },
    {
      "buffer": 0,
      "byteLength": 407544,
      "byteOffset": 2646196
    },
    {
      "buffer": 0,
      "byteLength": 332328,
      "byteOffset": 3053740
    },
    {
      "buffer": 0,
      "byteLength": 48240,
      "byteOffset": 3386068
    },
    {
      "buffer": 0,
      "byteLength": 48240,
      "byteOffset": 3434308
    },
    {
      "buffer": 0,
      "byteLength": 32160,
      "byteOffset": 3482548
    },
    {
      "buffer": 0,
      "byteLength": 45288,
      "byteOffset": 3514708
    }
  ],
  "samplers": [
    {
      "magFilter": 9729,
      "minFilter": 9987
    }
  ],
  "buffers": [
    {
      "byteLength": 3559996,
      "uri": "dutch_ship_large_02.bin"
    }
  ]
}